<svg xmlns="http://www.w3.org/2000/svg" xmlns:v="https://svgstorm.com"
viewBox = "0 0 461 645"
width="28"
height="28">
<g fill="None" fill-opacity="0.0" stroke="#000000" stroke-opacity="0.00" stroke-width="0.3"><path d="
M 0.00 645.00 
L 461.00 645.00
L 461.00 0.00
L 0.00 0.00
L 0.00 645.00
M 364.00 86.00 
C 352.74 92.53 342.71 99.82 330.92 105.92 C 319.13 112.01 308.78 97.54 295.77 94.23 C 282.76 90.92 263.24 87.43 249.33 90.33 C 235.42 93.23 222.48 97.68 210.77 104.77 C 199.06 111.86 190.71 118.31 181.25 128.25 C 171.79 138.19 164.56 145.97 157.25 157.25 C 149.94 168.52 144.79 179.54 139.02 192.02 C 133.26 204.51 129.24 217.11 124.68 230.68 C 120.11 244.24 117.16 258.32 114.01 273.01 C 110.86 287.69 109.35 304.27 108.00 320.00 C 106.65 335.73 105.85 354.10 106.99 370.01 C 108.13 385.91 108.61 403.44 111.78 418.22 C 114.95 433.01 117.41 447.39 121.98 461.02 C 126.54 474.65 131.43 486.92 137.77 499.23 C 144.11 511.54 149.52 520.99 158.77 531.23 C 168.02 541.47 177.07 547.42 189.23 553.77 C 201.38 560.12 220.39 559.97 233.07 555.07 C 245.76 550.18 255.38 543.86 265.25 534.25 C 275.11 524.64 281.50 516.16 288.92 504.92 C 296.34 493.68 301.87 482.86 306.98 469.98 C 312.08 457.09 316.94 444.22 319.99 429.99 C 323.05 415.77 327.32 401.20 328.93 385.93 C 330.53 370.66 332.18 352.76 332.93 336.93 C 333.67 321.10 331.96 301.42 331.00 286.00 C 330.04 270.58 326.26 255.08 323.22 240.78 C 320.18 226.48 316.50 212.82 311.07 199.93 C 305.65 187.03 301.22 174.47 292.00 165.00
C 254.29 269.97 245.82 386.53 254.00 501.00
C 232.50 505.99 211.61 513.35 190.00 518.00
C 178.55 478.13 172.48 438.69 171.00 396.00 C 169.52 353.31 173.26 304.21 181.00 264.00 C 188.73 223.78 199.30 195.27 217.92 158.92 C 236.54 122.57 286.73 120.81 320.22 134.78 C 353.72 148.74 377.87 168.70 394.77 202.23 C 411.67 235.76 419.81 280.25 419.78 319.22 C 419.75 358.19 412.30 404.89 398.68 439.68 C 385.05 474.46 370.17 500.75 345.08 528.08 C 320.00 555.41 293.80 571.81 258.78 582.78 C 223.76 593.74 173.04 587.38 141.92 568.08 C 110.81 548.77 90.24 528.79 70.23 497.77 C 50.22 466.75 37.51 433.12 30.22 395.78 C 22.94 358.44 23.29 302.38 31.33 265.33 C 39.37 228.28 51.78 194.74 71.75 163.75 C 91.73 132.77 110.59 111.85 142.08 92.08 C 173.57 72.32 211.29 59.36 250.00 58.00 C 288.71 56.64 331.88 65.15 364.00 86.00 Z"/>
</g>
<g fill="None" fill-opacity="0.0" stroke="#E71871" stroke-opacity="0.98" stroke-width="0.3"><path d="
M 364.00 86.00 
C 331.88 65.15 288.71 56.64 250.00 58.00 C 211.29 59.36 173.57 72.32 142.08 92.08 C 110.59 111.85 91.73 132.77 71.75 163.75 C 51.78 194.74 39.37 228.28 31.33 265.33 C 23.29 302.38 22.94 358.44 30.22 395.78 C 37.51 433.12 50.22 466.75 70.23 497.77 C 90.24 528.79 110.81 548.77 141.92 568.08 C 173.04 587.38 223.76 593.74 258.78 582.78 C 293.80 571.81 320.00 555.41 345.08 528.08 C 370.17 500.75 385.05 474.46 398.68 439.68 C 412.30 404.89 419.75 358.19 419.78 319.22 C 419.81 280.25 411.67 235.76 394.77 202.23 C 377.87 168.70 353.72 148.74 320.22 134.78 C 286.73 120.81 236.54 122.57 217.92 158.92 C 199.30 195.27 188.73 223.78 181.00 264.00 C 173.26 304.21 169.52 353.31 171.00 396.00 C 172.48 438.69 178.55 478.13 190.00 518.00
C 211.61 513.35 232.50 505.99 254.00 501.00
C 245.82 386.53 254.29 269.97 292.00 165.00
C 301.22 174.47 305.65 187.03 311.07 199.93 C 316.50 212.82 320.18 226.48 323.22 240.78 C 326.26 255.08 330.04 270.58 331.00 286.00 C 331.96 301.42 333.67 321.10 332.93 336.93 C 332.18 352.76 330.53 370.66 328.93 385.93 C 327.32 401.20 323.05 415.77 319.99 429.99 C 316.94 444.22 312.08 457.09 306.98 469.98 C 301.87 482.86 296.34 493.68 288.92 504.92 C 281.50 516.16 275.11 524.64 265.25 534.25 C 255.38 543.86 245.76 550.18 233.07 555.07 C 220.39 559.97 201.38 560.12 189.23 553.77 C 177.07 547.42 168.02 541.47 158.77 531.23 C 149.52 520.99 144.11 511.54 137.77 499.23 C 131.43 486.92 126.54 474.65 121.98 461.02 C 117.41 447.39 114.95 433.01 111.78 418.22 C 108.61 403.44 108.13 385.91 106.99 370.01 C 105.85 354.10 106.65 335.73 108.00 320.00 C 109.35 304.27 110.86 287.69 114.01 273.01 C 117.16 258.32 120.11 244.24 124.68 230.68 C 129.24 217.11 133.26 204.51 139.02 192.02 C 144.79 179.54 149.94 168.52 157.25 157.25 C 164.56 145.97 171.79 138.19 181.25 128.25 C 190.71 118.31 199.06 111.86 210.77 104.77 C 222.48 97.68 235.42 93.23 249.33 90.33 C 263.24 87.43 282.76 90.92 295.77 94.23 C 308.78 97.54 319.13 112.01 330.92 105.92 C 342.71 99.82 352.74 92.53 364.00 86.00 Z"/>
</g>
<g fill="#000000" fill-opacity="0.00" stroke="None">
<path d="
M 0.00 645.00 
L 461.00 645.00
L 461.00 0.00
L 0.00 0.00
L 0.00 645.00
M 364.00 86.00 
C 352.74 92.53 342.71 99.82 330.92 105.92 C 319.13 112.01 308.78 97.54 295.77 94.23 C 282.76 90.92 263.24 87.43 249.33 90.33 C 235.42 93.23 222.48 97.68 210.77 104.77 C 199.06 111.86 190.71 118.31 181.25 128.25 C 171.79 138.19 164.56 145.97 157.25 157.25 C 149.94 168.52 144.79 179.54 139.02 192.02 C 133.26 204.51 129.24 217.11 124.68 230.68 C 120.11 244.24 117.16 258.32 114.01 273.01 C 110.86 287.69 109.35 304.27 108.00 320.00 C 106.65 335.73 105.85 354.10 106.99 370.01 C 108.13 385.91 108.61 403.44 111.78 418.22 C 114.95 433.01 117.41 447.39 121.98 461.02 C 126.54 474.65 131.43 486.92 137.77 499.23 C 144.11 511.54 149.52 520.99 158.77 531.23 C 168.02 541.47 177.07 547.42 189.23 553.77 C 201.38 560.12 220.39 559.97 233.07 555.07 C 245.76 550.18 255.38 543.86 265.25 534.25 C 275.11 524.64 281.50 516.16 288.92 504.92 C 296.34 493.68 301.87 482.86 306.98 469.98 C 312.08 457.09 316.94 444.22 319.99 429.99 C 323.05 415.77 327.32 401.20 328.93 385.93 C 330.53 370.66 332.18 352.76 332.93 336.93 C 333.67 321.10 331.96 301.42 331.00 286.00 C 330.04 270.58 326.26 255.08 323.22 240.78 C 320.18 226.48 316.50 212.82 311.07 199.93 C 305.65 187.03 301.22 174.47 292.00 165.00
C 254.29 269.97 245.82 386.53 254.00 501.00
C 232.50 505.99 211.61 513.35 190.00 518.00
C 178.55 478.13 172.48 438.69 171.00 396.00 C 169.52 353.31 173.26 304.21 181.00 264.00 C 188.73 223.78 199.30 195.27 217.92 158.92 C 236.54 122.57 286.73 120.81 320.22 134.78 C 353.72 148.74 377.87 168.70 394.77 202.23 C 411.67 235.76 419.81 280.25 419.78 319.22 C 419.75 358.19 412.30 404.89 398.68 439.68 C 385.05 474.46 370.17 500.75 345.08 528.08 C 320.00 555.41 293.80 571.81 258.78 582.78 C 223.76 593.74 173.04 587.38 141.92 568.08 C 110.81 548.77 90.24 528.79 70.23 497.77 C 50.22 466.75 37.51 433.12 30.22 395.78 C 22.94 358.44 23.29 302.38 31.33 265.33 C 39.37 228.28 51.78 194.74 71.75 163.75 C 91.73 132.77 110.59 111.85 142.08 92.08 C 173.57 72.32 211.29 59.36 250.00 58.00 C 288.71 56.64 331.88 65.15 364.00 86.00 Z"/>
</g>
<g fill="#E71871" fill-opacity="0.98" stroke="None">
<path d="
M 364.00 86.00 
C 331.88 65.15 288.71 56.64 250.00 58.00 C 211.29 59.36 173.57 72.32 142.08 92.08 C 110.59 111.85 91.73 132.77 71.75 163.75 C 51.78 194.74 39.37 228.28 31.33 265.33 C 23.29 302.38 22.94 358.44 30.22 395.78 C 37.51 433.12 50.22 466.75 70.23 497.77 C 90.24 528.79 110.81 548.77 141.92 568.08 C 173.04 587.38 223.76 593.74 258.78 582.78 C 293.80 571.81 320.00 555.41 345.08 528.08 C 370.17 500.75 385.05 474.46 398.68 439.68 C 412.30 404.89 419.75 358.19 419.78 319.22 C 419.81 280.25 411.67 235.76 394.77 202.23 C 377.87 168.70 353.72 148.74 320.22 134.78 C 286.73 120.81 236.54 122.57 217.92 158.92 C 199.30 195.27 188.73 223.78 181.00 264.00 C 173.26 304.21 169.52 353.31 171.00 396.00 C 172.48 438.69 178.55 478.13 190.00 518.00
C 211.61 513.35 232.50 505.99 254.00 501.00
C 245.82 386.53 254.29 269.97 292.00 165.00
C 301.22 174.47 305.65 187.03 311.07 199.93 C 316.50 212.82 320.18 226.48 323.22 240.78 C 326.26 255.08 330.04 270.58 331.00 286.00 C 331.96 301.42 333.67 321.10 332.93 336.93 C 332.18 352.76 330.53 370.66 328.93 385.93 C 327.32 401.20 323.05 415.77 319.99 429.99 C 316.94 444.22 312.08 457.09 306.98 469.98 C 301.87 482.86 296.34 493.68 288.92 504.92 C 281.50 516.16 275.11 524.64 265.25 534.25 C 255.38 543.86 245.76 550.18 233.07 555.07 C 220.39 559.97 201.38 560.12 189.23 553.77 C 177.07 547.42 168.02 541.47 158.77 531.23 C 149.52 520.99 144.11 511.54 137.77 499.23 C 131.43 486.92 126.54 474.65 121.98 461.02 C 117.41 447.39 114.95 433.01 111.78 418.22 C 108.61 403.44 108.13 385.91 106.99 370.01 C 105.85 354.10 106.65 335.73 108.00 320.00 C 109.35 304.27 110.86 287.69 114.01 273.01 C 117.16 258.32 120.11 244.24 124.68 230.68 C 129.24 217.11 133.26 204.51 139.02 192.02 C 144.79 179.54 149.94 168.52 157.25 157.25 C 164.56 145.97 171.79 138.19 181.25 128.25 C 190.71 118.31 199.06 111.86 210.77 104.77 C 222.48 97.68 235.42 93.23 249.33 90.33 C 263.24 87.43 282.76 90.92 295.77 94.23 C 308.78 97.54 319.13 112.01 330.92 105.92 C 342.71 99.82 352.74 92.53 364.00 86.00 Z"/>
</g>
</svg>